<svg viewBox="0 0 800 600" height="600" width="800" xmlns="http://www.w3.org/2000/svg" version="1.1"><rect x="0" y="0" width="800" height="600" fill="#10254a"></rect><g transform-origin="400 300" transform="scale(1, 1)"><linearGradient id="linear-gradient-r1"><stop offset="0%" stop-color="#073965" stop-opacity="100%"></stop><stop offset="100%" stop-color="#416393" stop-opacity="100%"></stop></linearGradient><filter id="shadow-r1" x="-20%" width="150%" y="-20%" height="150%"><feDropShadow dx="0" dy="0" stdDeviation="10" flood-color="#00000061"></feDropShadow></filter><path d="M0 0 0,366.07307935799474 C 15.775172475306316,363.0336359617021 54.034464922780174,360.64908079437913 78.87586237653159,350.8758623765316 C 103.71725983028301,341.10264395868404 101.49961825278588,325.8996182527859 124.20698726875708,317.2069872687571 C 146.91435628472829,308.51435628472825 176.13746203025804,322.137462030258 192.41270745638758,307.4127074563876 C 208.68795288251712,292.68795288251715 199.2529865446035,267.8529865446035 205.58321439940482,243.58321439940482 C 211.91344225420616,219.31344225420617 225.40191648523324,218.00191648523324 224.0638467303943,186.0638467303943 C 222.72577697555533,154.12577697555534 193.68580992901698,109.68580992901698 198.8928656252101,83.8928656252101 C 204.09992132140323,58.09992132140323 232.44795008567164,70.84795008567163 250.09912521135993,57.09912521135993 C 267.75030033704826,43.350300337048246 265.74012036919595,26.568566295923667 287.1487412536517,15.148741253651679 C 308.5573621381074,3.7289162113796905 343.14353195764124,3.0297482507303406 357.14222963363864,0 L0 0Z" fill="none" stroke-linecap="round" filter="url(#shadow-r1)" stroke-width="1" style="transition: all 0.4s cubic-bezier(0.16, 1, 0.3, 1) 0s; fill: url(&quot;#linear-gradient-r1&quot;);"></path></g><g transform-origin="400 300" transform="scale(-1, -1)"><linearGradient id="linear-gradient-r1"><stop offset="0%" stop-color="#073965" stop-opacity="100%"></stop><stop offset="100%" stop-color="#416393" stop-opacity="100%"></stop></linearGradient><filter id="shadow-r1" x="-20%" width="150%" y="-20%" height="150%"><feDropShadow dx="0" dy="0" stdDeviation="10" flood-color="#00000061"></feDropShadow></filter><path d="M0 0 0,387.24762447383256 C 14.716642879880967,378.914742458947 53.370445053325966,364.2199699480925 73.58321439940482,345.5832143994048 C 93.79598374548368,326.9464588507172 99.00191648523324,323.40191648523324 101.06384673039429,294.0638467303943 C 103.12577697555534,264.72577697555533 75.68580992901698,221.68580992901698 83.8928656252101,198.8928656252101 C 92.09992132140323,176.09992132140323 121.84795008567161,190.4479500856716 142.09912521135993,180.09912521135993 C 162.35030033704825,169.75030033704826 162.1211564180441,154.72115641804413 185.14874125365168,147.14874125365168 C 208.17632608925925,139.57632608925923 235.79102588230745,151.79102588230745 257.2370493893977,142.23704938939773 C 278.683072896488,132.683072896488 284.2682769245468,122.6682769245468 292.3788587891031,99.3788587891031 C 300.4894406536594,76.08944065365941 283.9186430370901,45.66573046999984 297.7899587121792,25.789958712179214 C 311.66127438726835,5.914186954358591 348.94634147407487,5.157991742435844 361.7354371645488,0 L0 0Z" fill="none" stroke-linecap="round" filter="url(#shadow-r1)" stroke-width="1" style="transition: all 0.4s cubic-bezier(0.16, 1, 0.3, 1) 0s; fill: url(&quot;#linear-gradient-r1&quot;);"></path></g></svg>